<svg width="15" height="12" viewBox="0 0 15 12" fill="none" xmlns="http://www.w3.org/2000/svg">
<path d="M8.52276 0C5.13344 0 2.3864 2.686 2.3864 6H0.340942L3.04708 9L5.96594 6H3.92049C3.92049 3.519 5.98537 1.5 8.52276 1.5C11.0601 1.5 13.125 3.519 13.125 6C13.125 8.481 11.0601 10.5 8.52276 10.5C7.17992 10.5 5.98128 9.925 5.13958 9.026L4.07287 10.123C5.19072 11.277 6.76878 12 8.52276 12C11.9121 12 14.6591 9.314 14.6591 6C14.6591 2.686 11.9121 0 8.52276 0Z" fill="#7D8597"/>
<path d="M7.5 3V6.24L10.2481 8.391L10.8873 7.609L8.52273 5.76V3H7.5Z" fill="#7D8597"/>
</svg>
