<svg width="15" height="19" viewBox="0 0 15 19" fill="none" xmlns="http://www.w3.org/2000/svg">
<path fill-rule="evenodd" clip-rule="evenodd" d="M13.9583 17.2917H14.1667C14.6269 17.2917 15 17.6648 15 18.125V18.75H0V18.125C0 17.6648 0.373096 17.2917 0.833333 17.2917H1.04167V0.833333C1.04167 0.373096 1.41476 0 1.875 0H13.125C13.5852 0 13.9583 0.373096 13.9583 0.833333V17.2917ZM6.875 13.75C6.64488 13.75 6.45833 13.9365 6.45833 14.1667V17.5H8.54167V14.1667C8.54167 13.9365 8.35512 13.75 8.125 13.75H6.875ZM4.79167 3.125C4.56155 3.125 4.375 3.31155 4.375 3.54167V4.79167C4.375 5.02179 4.56155 5.20833 4.79167 5.20833H6.04167C6.27179 5.20833 6.45833 5.02179 6.45833 4.79167V3.54167C6.45833 3.31155 6.27179 3.125 6.04167 3.125H4.79167ZM4.79167 6.66667C4.56155 6.66667 4.375 6.85321 4.375 7.08333V8.33333C4.375 8.56345 4.56155 8.75 4.79167 8.75H6.04167C6.27179 8.75 6.45833 8.56345 6.45833 8.33333V7.08333C6.45833 6.85321 6.27179 6.66667 6.04167 6.66667H4.79167ZM4.79167 10.2083C4.56155 10.2083 4.375 10.3949 4.375 10.625V11.875C4.375 12.1051 4.56155 12.2917 4.79167 12.2917H6.04167C6.27179 12.2917 6.45833 12.1051 6.45833 11.875V10.625C6.45833 10.3949 6.27179 10.2083 6.04167 10.2083H4.79167ZM8.95833 10.2083C8.72821 10.2083 8.54167 10.3949 8.54167 10.625V11.875C8.54167 12.1051 8.72821 12.2917 8.95833 12.2917H10.2083C10.4385 12.2917 10.625 12.1051 10.625 11.875V10.625C10.625 10.3949 10.4385 10.2083 10.2083 10.2083H8.95833ZM8.95833 6.66667C8.72821 6.66667 8.54167 6.85321 8.54167 7.08333V8.33333C8.54167 8.56345 8.72821 8.75 8.95833 8.75H10.2083C10.4385 8.75 10.625 8.56345 10.625 8.33333V7.08333C10.625 6.85321 10.4385 6.66667 10.2083 6.66667H8.95833ZM8.95833 3.125C8.72821 3.125 8.54167 3.31155 8.54167 3.54167V4.79167C8.54167 5.02179 8.72821 5.20833 8.95833 5.20833H10.2083C10.4385 5.20833 10.625 5.02179 10.625 4.79167V3.54167C10.625 3.31155 10.4385 3.125 10.2083 3.125H8.95833Z" fill="#0073E6"/>
</svg>
