<svg width="13" height="15" viewBox="0 0 13 15" fill="none" xmlns="http://www.w3.org/2000/svg">
<path d="M6.19426 9.96316H11.5153C11.7048 9.96316 11.8785 10.0105 12.0364 10.0737V8.92105C12.0364 7.31053 10.7258 6 9.11531 6H6.00478C4.64689 6 3.51005 6.91579 3.17847 8.17895C4.41005 8.27368 5.5311 8.93684 6.19426 9.96316Z" fill="#7D8597"/>
<path d="M7.55215 5.17895C8.98228 5.17895 10.1416 4.0196 10.1416 2.58947C10.1416 1.15935 8.98228 0 7.55215 0C6.12202 0 4.96268 1.15935 4.96268 2.58947C4.96268 4.0196 6.12202 5.17895 7.55215 5.17895Z" fill="#7D8597"/>
<path d="M12.589 12L11.6258 11.1C11.5943 11.0684 11.5469 11.0526 11.4995 11.0526H5.95741C5.72057 11.0526 5.49952 10.9263 5.38899 10.721C4.89952 9.85262 3.96794 9.26841 2.89425 9.25262C1.37846 9.23683 0.083726 10.4526 0.00477859 11.9684C-0.0899583 13.6263 1.23636 15 2.87846 15C3.95215 15 4.88373 14.4158 5.38899 13.5316C5.49952 13.3263 5.72057 13.2158 5.95741 13.2158H7.04688C7.09425 13.2158 7.14162 13.2 7.1732 13.1684L7.71004 12.6316C7.78899 12.5526 7.89952 12.5526 7.96267 12.6316L8.49952 13.1684C8.53109 13.2 8.57846 13.2158 8.62583 13.2158H9.14688C9.19425 13.2158 9.24162 13.2 9.2732 13.1684L9.81004 12.6316C9.88899 12.5526 9.99951 12.5526 10.0627 12.6316L10.5995 13.1684C10.6311 13.2 10.6785 13.2158 10.7258 13.2158H11.4679C11.5153 13.2158 11.5627 13.2 11.5943 13.1684L12.5574 12.2684C12.6679 12.1895 12.6679 12.0632 12.589 12ZM2.01004 12.9947C1.53636 12.9947 1.14162 12.6 1.14162 12.1263C1.14162 11.6526 1.53636 11.2579 2.01004 11.2579C2.48373 11.2579 2.87846 11.6526 2.87846 12.1263C2.87846 12.6 2.48373 12.9947 2.01004 12.9947Z" fill="#7D8597"/>
</svg>
