<svg width="18" height="18" viewBox="0 0 18 18" fill="none" xmlns="http://www.w3.org/2000/svg">
<path d="M16.5 12.75V6.75H1.5V12.75H3V8.25H8.25V12.75H9.75V8.25H15V12.75H16.5Z" fill="#0073E6"/>
<path d="M2.25 18C3.49264 18 4.5 16.9926 4.5 15.75C4.5 14.5074 3.49264 13.5 2.25 13.5C1.00736 13.5 0 14.5074 0 15.75C0 16.9926 1.00736 18 2.25 18Z" fill="#0073E6"/>
<path d="M12 3C12 1.3455 10.6545 0 9 0C7.3455 0 6 1.3455 6 3C6 4.6545 7.3455 6 9 6C10.6545 6 12 4.6545 12 3Z" fill="#0073E6"/>
<path d="M9 18C10.2426 18 11.25 16.9926 11.25 15.75C11.25 14.5074 10.2426 13.5 9 13.5C7.75736 13.5 6.75 14.5074 6.75 15.75C6.75 16.9926 7.75736 18 9 18Z" fill="#0073E6"/>
<path d="M15.75 18C16.9926 18 18 16.9926 18 15.75C18 14.5074 16.9926 13.5 15.75 13.5C14.5074 13.5 13.5 14.5074 13.5 15.75C13.5 16.9926 14.5074 18 15.75 18Z" fill="#0073E6"/>
</svg>
