<svg width="12" height="13" viewBox="0 0 12 13" fill="none" xmlns="http://www.w3.org/2000/svg">
<path fill-rule="evenodd" clip-rule="evenodd" d="M0.248351 4.62225C0.248351 4.62225 -0.157135 3.36074 0.0681346 2.14428C0.248351 0.972877 0.879107 0.522337 1.05932 0.387175C1.23954 0.297067 1.50986 0.116851 1.50986 0.116851C1.50986 0.116851 1.82524 -0.198527 2.18567 0.206959C2.54611 0.567391 4.2131 2.27944 4.2131 2.27944C4.2131 2.27944 4.52848 2.63988 4.25816 3.00031C3.98783 3.31569 3.0417 4.26182 3.0417 4.26182C3.44719 5.79366 6.19548 8.54195 7.72732 8.94744C7.72732 8.94744 8.67345 8.04636 9.03388 7.77603C9.34926 7.50571 9.70969 7.82109 9.70969 7.82109C9.70969 7.82109 11.4217 9.44303 11.8272 9.80346C12.1877 10.2089 11.8723 10.4793 11.8723 10.4793C11.8723 10.4793 11.7371 10.7947 11.602 10.9298C11.5119 11.11 11.0163 11.7408 9.84485 11.9661C8.67345 12.1463 7.36688 11.7408 7.36688 11.7408C4.66364 10.6595 1.32965 7.37055 0.248351 4.62225Z" fill="#5C677D"/>
</svg>
