<svg width="18" height="16" viewBox="0 0 18 16" fill="none" xmlns="http://www.w3.org/2000/svg">
<path d="M6.14634 0C5.90312 0 5.70732 0.195803 5.70732 0.439024V1.7561H12.2927V0.439024C12.2927 0.195803 12.0969 0 11.8537 0H6.14634ZM1.97561 2.63415C0.881122 2.63415 0 3.51527 0 4.60976V6.54423C2.00977 7.6331 4.72963 8.36873 7.77211 8.52672C7.96215 8.03297 8.4393 7.68295 9 7.68295C9.56127 7.68295 10.0451 8.03216 10.2348 8.52672C13.2745 8.36799 15.9917 7.63229 18 6.54423V4.60976C18 3.51527 17.1189 2.63415 16.0244 2.63415H1.97561ZM0 7.53204V13.3902C0 14.4847 0.881122 15.3659 1.97561 15.3659H16.0244C17.1189 15.3659 18 14.4847 18 13.3902V7.53204C15.898 8.57863 13.2172 9.25444 10.2553 9.40477C10.0842 9.93355 9.58577 10.3171 9 10.3171C8.4143 10.3171 7.9227 9.93346 7.75152 9.40477C4.78692 9.25515 2.10363 8.57944 0 7.53204Z" fill="#0073E6"/>
</svg>
