<svg width="15" height="12" viewBox="0 0 15 12" fill="none" xmlns="http://www.w3.org/2000/svg">
<path d="M8.52275 0C5.13343 0 2.38638 2.686 2.38638 6H0.340927L3.04706 9L5.96593 6H3.92047C3.92047 3.519 5.98536 1.5 8.52275 1.5C11.0601 1.5 13.125 3.519 13.125 6C13.125 8.481 11.0601 10.5 8.52275 10.5C7.1799 10.5 5.98127 9.925 5.13956 9.026L4.07286 10.123C5.1907 11.277 6.76877 12 8.52275 12C11.9121 12 14.6591 9.314 14.6591 6C14.6591 2.686 11.9121 0 8.52275 0Z" fill="#7D8597"/>
<path d="M7.5 3V6.24L10.2481 8.391L10.8873 7.609L8.52273 5.76V3H7.5Z" fill="#7D8597"/>
</svg>
